<mxfile host="app.diagrams.net" modified="2023-04-25T17:29:12.383Z" agent="Mozilla/5.0 (Windows NT 10.0; Win64; x64) AppleWebKit/537.36 (KHTML, like Gecko) Chrome/112.0.0.0 Safari/537.36 Edg/112.0.1722.58" etag="AEjvtwOhqb0cAS3AiqFn" version="21.2.1" type="github">
  <diagram name="Page-1" id="RMJ-vbcdZXDSNZyVhLtP">
    <mxGraphModel dx="993" dy="619" grid="1" gridSize="10" guides="1" tooltips="1" connect="1" arrows="1" fold="1" page="1" pageScale="1" pageWidth="827" pageHeight="1169" math="0" shadow="0">
      <root>
        <mxCell id="0" />
        <mxCell id="1" parent="0" />
        <mxCell id="-EnqzsPrEFZsN0ibr7pR-1" value="" style="rounded=0;whiteSpace=wrap;html=1;" parent="1" vertex="1">
          <mxGeometry x="100" y="40" width="640" height="1060" as="geometry" />
        </mxCell>
        <mxCell id="-EnqzsPrEFZsN0ibr7pR-2" value="Online Property Sales Management System" style="text;align=center;fontStyle=1;verticalAlign=middle;spacingLeft=3;spacingRight=3;strokeColor=none;rotatable=0;points=[[0,0.5],[1,0.5]];portConstraint=eastwest;html=1;fontSize=15;" parent="1" vertex="1">
          <mxGeometry x="260.5" y="60" width="319" height="30" as="geometry" />
        </mxCell>
        <mxCell id="-EnqzsPrEFZsN0ibr7pR-3" value="User" style="shape=umlActor;verticalLabelPosition=bottom;verticalAlign=top;html=1;" parent="1" vertex="1">
          <mxGeometry x="40" y="351" width="30" height="60" as="geometry" />
        </mxCell>
        <mxCell id="-EnqzsPrEFZsN0ibr7pR-4" value="Guest" style="shape=umlActor;verticalLabelPosition=bottom;verticalAlign=top;html=1;" parent="1" vertex="1">
          <mxGeometry x="40" y="151" width="30" height="60" as="geometry" />
        </mxCell>
        <mxCell id="-EnqzsPrEFZsN0ibr7pR-5" value="Seller" style="shape=umlActor;verticalLabelPosition=bottom;verticalAlign=top;html=1;" parent="1" vertex="1">
          <mxGeometry x="40" y="551" width="30" height="60" as="geometry" />
        </mxCell>
        <mxCell id="-EnqzsPrEFZsN0ibr7pR-6" value="Staff Member" style="shape=umlActor;verticalLabelPosition=bottom;verticalAlign=top;html=1;" parent="1" vertex="1">
          <mxGeometry x="40" y="751" width="30" height="60" as="geometry" />
        </mxCell>
        <mxCell id="-EnqzsPrEFZsN0ibr7pR-7" value="System Admin" style="shape=umlActor;verticalLabelPosition=bottom;verticalAlign=top;html=1;" parent="1" vertex="1">
          <mxGeometry x="40" y="951" width="30" height="60" as="geometry" />
        </mxCell>
        <mxCell id="-EnqzsPrEFZsN0ibr7pR-8" value="" style="endArrow=classic;html=1;rounded=0;" parent="1" edge="1">
          <mxGeometry width="50" height="50" relative="1" as="geometry">
            <mxPoint x="54.7" y="340" as="sourcePoint" />
            <mxPoint x="54.7" y="240" as="targetPoint" />
          </mxGeometry>
        </mxCell>
        <mxCell id="-EnqzsPrEFZsN0ibr7pR-9" value="" style="endArrow=classic;html=1;rounded=0;" parent="1" edge="1">
          <mxGeometry width="50" height="50" relative="1" as="geometry">
            <mxPoint x="54.230000000000004" y="540" as="sourcePoint" />
            <mxPoint x="54.230000000000004" y="440" as="targetPoint" />
          </mxGeometry>
        </mxCell>
        <mxCell id="-EnqzsPrEFZsN0ibr7pR-10" value="" style="endArrow=classic;html=1;rounded=0;" parent="1" edge="1">
          <mxGeometry width="50" height="50" relative="1" as="geometry">
            <mxPoint x="54.230000000000004" y="740" as="sourcePoint" />
            <mxPoint x="54.230000000000004" y="640" as="targetPoint" />
          </mxGeometry>
        </mxCell>
        <mxCell id="-EnqzsPrEFZsN0ibr7pR-11" value="" style="endArrow=classic;html=1;rounded=0;" parent="1" edge="1">
          <mxGeometry width="50" height="50" relative="1" as="geometry">
            <mxPoint x="54.230000000000004" y="940" as="sourcePoint" />
            <mxPoint x="54.230000000000004" y="840" as="targetPoint" />
          </mxGeometry>
        </mxCell>
        <mxCell id="-EnqzsPrEFZsN0ibr7pR-12" value="" style="ellipse;whiteSpace=wrap;html=1;" parent="1" vertex="1">
          <mxGeometry x="200" y="100" width="120" height="80" as="geometry" />
        </mxCell>
        <mxCell id="-EnqzsPrEFZsN0ibr7pR-13" value="" style="endArrow=none;html=1;rounded=0;" parent="1" target="-EnqzsPrEFZsN0ibr7pR-12" edge="1">
          <mxGeometry width="50" height="50" relative="1" as="geometry">
            <mxPoint x="100" y="200" as="sourcePoint" />
            <mxPoint x="150" y="150" as="targetPoint" />
            <Array as="points">
              <mxPoint x="150" y="170" />
            </Array>
          </mxGeometry>
        </mxCell>
      </root>
    </mxGraphModel>
  </diagram>
</mxfile>
